<?xml version="1.0" encoding="UTF-8" standalone="no"?>
<!-- Created with Inkscape (http://www.inkscape.org/) -->

<svg
   width="300px"
   height="22px"
   viewBox="0 0 189.10704 13.338001"
   version="1.1"
   id="svg5"
   xmlns="http://www.w3.org/2000/svg"
   xmlns:svg="http://www.w3.org/2000/svg">
  <defs
     id="defs2" />
  <g
     id="layer1"
     transform="translate(-12.559025,-20.039226)">
    <g
       aria-label="Кибермагистр"
       id="text179"
       style="font-weight:bold;font-size:19px;font-family:'Century Gothic';-inkscape-font-specification:'Century Gothic Bold';stroke-width:0.264583">
      <path
         d="m 25.669025,33.206226 h -3.325 l -6.441,-5.377 q -0.665,-0.57 -0.665,-1.045 0,-0.456 0.665,-1.026 l 6.441,-5.529 h 3.325 l -7.733,6.612 z m -10.849,0 h -2.261 v -12.977 h 2.261 z"

         id="path537" />
      <path
         d="m 40.052029,21.483226 v 11.856 h -2.261 v -9.006 l -8.322,8.341 q -0.665,0.665 -1.292,0.665 -0.456,0 -0.703,-0.323 -0.247,-0.342 -0.247,-0.798 v -11.856 h 2.242 v 9.006 l 8.322,-8.36 q 0.779,-0.779 1.406,-0.779 0.855,0 0.855,1.254 z"

         id="path539" />
      <path
         d="m 45.467037,22.490226 v 8.436 h 7.391 q 0.931,0 1.653,-0.285 0.988,-0.418 0.988,-1.197 0,-0.798 -0.988,-1.216 -0.741,-0.304 -1.653,-0.304 h -6.061 v -2.261 h 6.061 q 0.95,0 1.71,0.209 0.779,0.19 1.748,0.912 1.368,1.064 1.368,2.641 0,0.836 -0.418,1.577 -1.254,2.185 -4.75,2.185 h -7.068 v 0.019 h -2.261 v -12.977 h 0.019 v -0.019 l 0.019,0.019 h 13.452 v 2.261 z"

         id="path541" />
      <path
         d="m 70.661053,27.753226 h -7.41 v -2.261 h 7.41 z m 0.589,5.453 h -11.21 v -12.977 h 11.21 v 2.261 h -8.949 v 8.455 h 8.949 z"

         id="path543" />
      <path
         d="m 88.027055,24.903226 q 0,2.128 -1.558,3.439 -1.444,1.216 -3.629,1.216 h -5.719 v -2.242 h 6.08 q 1.121,0 1.881,-0.665 0.76,-0.665 0.76,-1.767 0,-1.102 -0.76,-1.748 -0.76,-0.646 -1.881,-0.646 h -7.41 v 10.716 h -2.261 v -12.977 h 9.31 q 2.185,0 3.629,1.235 1.558,1.292 1.558,3.439 z"

         id="path545" />
      <path
         d="m 109.02206,33.225226 h -2.546 l -1.881,-9.082 -4.351,8.379 q -0.437002,0.855 -1.216002,0.855 -0.874,0 -1.33,-0.874 l -4.351,-8.36 -1.862,9.082 h -2.565 l 2.907,-11.913 q 0.114,-0.513 0.494,-0.893 0.399,-0.38 0.912,-0.38 0.741,0 1.406,1.273 l 4.332,8.493 4.351002,-8.493 q 0.665,-1.273 1.406,-1.273 0.494,0 0.912,0.399 0.361,0.361 0.494,0.874 z"

         id="path547" />
      <path
         d="m 128.13608,33.206226 -2.907,-0.019 -2.185,-3.629 h -6.156 l 1.368,-2.242 h 3.439 l -2.261,-3.743 -5.852,9.614 h -2.907 l 7.049,-11.723 q 0.266,-0.456 0.741,-0.836 0.57,-0.437 1.026,-0.437 0.494,0 1.026,0.418 0.456,0.361 0.741,0.855 z"

         id="path549" />
      <path
         d="m 140.42907,22.490226 h -8.949 v 10.716 h -2.261 v -12.977 h 11.21 z"

         id="path551" />
      <path
         d="m 155.38206,21.483226 v 11.856 h -2.261 v -9.006 l -8.322,8.341 q -0.665,0.665 -1.292,0.665 -0.456,0 -0.703,-0.323 -0.247,-0.342 -0.247,-0.798 v -11.856 h 2.242 v 9.006 l 8.322,-8.36 q 0.779,-0.779 1.406,-0.779 0.855,0 0.855,1.254 z"

         id="path553" />
      <path
         d="m 172.00707,33.206226 h -7.334 q -2.831,0 -4.693,-1.881 -1.843,-1.881 -1.843,-4.75 0,-2.85 1.824,-4.598 1.843,-1.748 4.712,-1.748 h 7.334 v 2.261 h -7.334 q -1.862,0 -3.078,1.197 -1.197,1.197 -1.197,3.078 0,1.862 1.197,3.021 1.216,1.159 3.078,1.159 h 7.334 z"

         id="path555" />
      <path
         d="m 185.85807,22.490226 h -5.111 v 10.716 h -2.242 v -10.716 h -5.13 v -2.261 h 12.483 z"

         id="path557" />
      <path
         d="m 201.66606,24.903226 q 0,2.128 -1.558,3.439 -1.444,1.216 -3.629,1.216 h -5.719 v -2.242 h 6.08 q 1.121,0 1.881,-0.665 0.76,-0.665 0.76,-1.767 0,-1.102 -0.76,-1.748 -0.76,-0.646 -1.881,-0.646 h -7.41 v 10.716 h -2.261 v -12.977 h 9.31 q 2.185,0 3.629,1.235 1.558,1.292 1.558,3.439 z"

         id="path559" />
    </g>
  </g>
</svg>
